<svg width="75" height="73" viewBox="0 0 75 73" xmlns="http://www.w3.org/2000/svg" xmlns:xlink="http://www.w3.org/1999/xlink">
    <defs>
        <path id="8m4zivxe6a" d="M.723.463h55.681V27H.723z"/>
        <path id="ou4vuuilzc" d="M.016.243h42.487v56.082H.016z"/>
    </defs>
    <g fill="none" fill-rule="evenodd">
        <g transform="translate(3 46)">
            <mask id="ta8hvgihnb" fill="#fff">
                <use xlink:href="#8m4zivxe6a"/>
            </mask>
            <path d="M49.94 12.697c-2.075 0-3.765-1.716-3.765-3.822 0-2.1 1.69-3.816 3.765-3.816 2.08 0 3.764 1.716 3.764 3.816 0 2.106-1.684 3.822-3.764 3.822m0-10.386c-3.564 0-6.47 2.946-6.47 6.564a6.584 6.584 0 0 0 3.409 5.784c-2.801 5.784-8.704 9.588-15.08 9.588H20.223c-9.266 0-16.794-7.65-16.794-17.052V1.831c0-.756-.609-1.368-1.353-1.368-.75 0-1.353.612-1.353 1.368v5.364c0 10.914 8.745 19.806 19.5 19.806h11.576c7.563 0 14.548-4.614 17.71-11.58.141.012.289.024.43.024 3.57 0 6.465-2.946 6.465-6.57 0-3.618-2.895-6.564-6.464-6.564" fill="#FFF" mask="url(#ta8hvgihnb)"/>
        </g>
        <path d="M57.696 11.374h-6.392C50.581 11.374 50 10.762 50 10c0-.756.581-1.374 1.304-1.374h6.392C58.419 8.626 59 9.244 59 10c0 .762-.581 1.374-1.304 1.374M66.652 19.374H55.348C54.6 19.374 54 18.756 54 18c0-.762.6-1.374 1.348-1.374h11.304A1.36 1.36 0 0 1 68 18c0 .756-.606 1.374-1.348 1.374M66.676 27.374h-9.352C56.59 27.374 56 26.756 56 26c0-.756.59-1.374 1.324-1.374h9.352c.729 0 1.324.618 1.324 1.374 0 .756-.595 1.374-1.324 1.374M66.634 34.374H60.36c-.752 0-1.36-.618-1.36-1.374 0-.756.608-1.374 1.36-1.374h6.274a1.374 1.374 0 0 1 0 2.748M66.634 42.374H60.36c-.752 0-1.36-.618-1.36-1.374 0-.756.608-1.374 1.36-1.374h6.274a1.374 1.374 0 0 1 0 2.748M5.364 33h-.042A1.37 1.37 0 0 1 4 31.597C4.465 14.379 12.484 6 28.517 6c15.712 0 23.725 8.038 24.481 24.581a1.367 1.367 0 0 1-1.303 1.428 1.37 1.37 0 0 1-1.423-1.308c-.685-14.984-7.597-21.96-21.755-21.96-14.45 0-21.373 7.28-21.79 22.927A1.37 1.37 0 0 1 5.364 33" fill="#FFF"/>
        <path d="M53.297 44.874c0 1.092-.879 1.971-1.965 1.971h-1.109c-.885 0-1.623-.602-1.87-1.404.011-.071.023-.136.023-.207l-.118-10.439v-.224a1.97 1.97 0 0 1 1.97-1.965h1.104c1.086 0 1.965.88 1.965 1.965v10.303zM37.53 59.987c-2.897 2.166-6.19 3.31-9.512 3.31-3.334 0-6.627-1.15-9.524-3.322-3.736-2.797-6.244-7.323-8.102-14.629.017-.153.053-.307.053-.472v-8.74c.053-.064.124-.147.194-.223.024-.024.048-.06.077-.095.07-.07.148-.16.224-.242.053-.059.107-.118.171-.177a5.03 5.03 0 0 1 .248-.26c.077-.076.148-.153.23-.236.089-.094.19-.188.284-.283.094-.094.194-.183.289-.271.106-.1.206-.2.319-.301l.348-.313c.112-.094.23-.2.342-.3.142-.119.29-.237.43-.36.119-.095.23-.184.349-.284.26-.207.537-.419.826-.631.094-.077.212-.154.313-.225.206-.147.401-.283.613-.43.124-.083.278-.172.413-.266.183-.124.39-.248.59-.366.148-.094.307-.183.46-.277.201-.112.402-.23.615-.343.165-.082.33-.17.49-.253.224-.106.436-.219.66-.319.171-.083.337-.16.52-.23.236-.106.472-.195.714-.295.17-.065.336-.13.519-.195.271-.1.543-.189.826-.271.16-.048.307-.1.46-.148.431-.118.868-.224 1.304-.307a.407.407 0 0 0 .048-.017c.348.442.867 1.044 1.575 1.723.006.012.012.017.018.023.23.219.478.443.732.673.023.012.035.03.053.041.26.225.543.46.843.697.018.017.042.03.065.053.295.23.62.466.962.702l.071.053c.342.236.702.466 1.08.696l.088.054a19.396 19.396 0 0 0 1.293.725 23.93 23.93 0 0 0 2.997 1.293c.532.194 1.086.371 1.659.525.011.006.023.006.04.012a23.06 23.06 0 0 0 1.83.436h.006c1.93.39 4.078.596 6.462.543h.011a36.32 36.32 0 0 0 2.337-.135c.042 0 .077-.006.112-.006v8.55c0 .165.03.319.048.478-1.86 7.323-4.355 11.861-8.073 14.635zM5.771 46.845H4.668a1.97 1.97 0 0 1-1.965-1.97V34.57c0-1.086.885-1.965 1.965-1.965H5.77c1.086 0 1.965.88 1.965 1.965v1.127l-.112 9.536c0 .065.018.136.024.207a1.969 1.969 0 0 1-1.877 1.404zm22.247-30.142c11.017 0 16.593 5.381 17.467 16.912-.03.006-.065.006-.089.012-.189.018-.372.03-.566.041-.254.018-.508.041-.756.053-.218.012-.419.018-.625.024-.219.012-.443.018-.65.023-.224 0-.442 0-.666-.005-.19 0-.378 0-.56-.006a12.73 12.73 0 0 1-.68-.036c-.165-.006-.336-.012-.507-.023a12.931 12.931 0 0 1-.673-.06c-.153-.011-.306-.023-.448-.04-.23-.03-.449-.066-.673-.095l-.413-.053c-.224-.036-.442-.071-.66-.118-.119-.018-.249-.047-.367-.071-.218-.047-.442-.089-.655-.136-.112-.03-.224-.053-.336-.082-.212-.053-.43-.107-.637-.166-.095-.03-.2-.059-.301-.088a9.319 9.319 0 0 1-.614-.189l-.277-.088c-.2-.065-.402-.142-.596-.213-.089-.035-.171-.059-.254-.088-.195-.077-.39-.16-.578-.242a1.766 1.766 0 0 1-.225-.089 52.48 52.48 0 0 1-.56-.248c-.065-.035-.13-.065-.2-.1a6.364 6.364 0 0 1-.532-.266c-.065-.03-.124-.053-.183-.088-.177-.094-.348-.189-.513-.277l-.165-.095a9.324 9.324 0 0 1-.478-.289 3.545 3.545 0 0 1-.154-.088c-.153-.1-.313-.195-.46-.296-.047-.035-.089-.059-.13-.094-.153-.094-.295-.2-.437-.295-.035-.03-.07-.053-.112-.089-.141-.1-.277-.194-.407-.3a.68.68 0 0 1-.1-.083c-.136-.1-.26-.2-.384-.301-.03-.024-.053-.047-.088-.07l-.354-.302-.077-.07a8.022 8.022 0 0 1-.325-.29.707.707 0 0 1-.064-.07c-.1-.09-.201-.184-.296-.278l-.064-.065c-.089-.088-.183-.171-.254-.265a.21.21 0 0 1-.065-.06c-.083-.082-.154-.165-.224-.241-.024-.018-.042-.042-.06-.065-.07-.077-.13-.148-.194-.219-.018-.017-.035-.04-.053-.065-.06-.059-.106-.123-.154-.182-.03-.03-.053-.06-.076-.089a2.51 2.51 0 0 0-.107-.13c-.029-.047-.064-.088-.094-.13a.163.163 0 0 1-.041-.053 8.745 8.745 0 0 1-.23-.312v-.006c-.012-.018-.03-.03-.036-.042-.141-.2-.33-.36-.549-.454-.03-.012-.059-.018-.088-.03-.094-.03-.183-.064-.272-.076a1.478 1.478 0 0 0-.395 0c-.52.082-1.027.189-1.522.3a3.883 3.883 0 0 0-.307.077c-.484.113-.956.248-1.416.396-.077.023-.148.053-.225.082-.43.142-.85.295-1.262.46l-.183.071a25.68 25.68 0 0 0-1.287.579c-.082.041-.17.082-.242.124-.425.212-.838.425-1.233.649 0 0 0 .006-.006.006a27.45 27.45 0 0 0-1.162.69c-.06.047-.13.083-.195.124-.354.236-.708.472-1.045.708a1.107 1.107 0 0 1-.141.106 17 17 0 0 0-.92.69l-.09.054c-.306.242-.595.484-.873.714-.047.047-.1.088-.147.136-.266.218-.52.442-.75.649 1.257-10.427 6.828-15.32 17.32-15.32zm23.314 13.2H50.23c-.88 0-1.694.26-2.396.685C46.104 19.582 39.46 14 28.018 14c-11.454 0-18.11 5.576-19.84 16.594a4.603 4.603 0 0 0-2.407-.69H4.668A4.667 4.667 0 0 0 0 34.57v10.303a4.672 4.672 0 0 0 4.668 4.674H5.77c1.021 0 1.96-.342 2.738-.897 1.947 6.432 4.591 10.663 8.356 13.484C20.24 64.666 24.099 66 28.018 66c3.912 0 7.76-1.334 11.135-3.847 3.753-2.81 6.39-7.046 8.344-13.502a4.655 4.655 0 0 0 2.726.897h1.11A4.672 4.672 0 0 0 56 44.874V34.571a4.667 4.667 0 0 0-4.668-4.668z" fill="#FFF"/>
        <path d="M47.2 53.626h-.978a28.05 28.05 0 0 1-1.44 2.748h2.436A6.566 6.566 0 0 1 47.056 55c0-.48.048-.936.144-1.374" fill="#FFF"/>
        <g transform="translate(32)">
            <mask id="g30k6f4qnd" fill="#fff">
                <use xlink:href="#ou4vuuilzc"/>
            </mask>
            <path d="M33.44 9.353V4.857l4.476 4.496h-4.477zm9.04 1.1v-.006c-.029-.119-.07-.23-.117-.331-.011-.024-.023-.054-.04-.077-.06-.107-.13-.201-.212-.29L33.046.632a2.297 2.297 0 0 0-.282-.207c-.03-.018-.053-.036-.083-.048a1.82 1.82 0 0 0-.317-.106c-.006-.006-.018-.006-.023-.006a1.164 1.164 0 0 0-.247-.023H1.362C.616.242.016.844.016 1.595v12.397c.934.106 1.833.26 2.691.455v-11.5h28.041v7.76c0 .75.606 1.353 1.346 1.353h7.72v41.558H27.54c.1.432.147.887.147 1.354 0 .46-.047.915-.147 1.353h13.618c.74 0 1.345-.609 1.345-1.353V10.707c0-.09-.011-.172-.023-.255z" fill="#FFF" mask="url(#g30k6f4qnd)"/>
        </g>
    </g>
</svg>
