<svg width="77" height="64" viewBox="0 0 77 64" xmlns="http://www.w3.org/2000/svg">
    <g fill="#60BEB3" fill-rule="evenodd">
        <path d="M2.484 61.497h72.032v-2.952H2.484v2.952zm8.847-21.908h54.338l8.087 16.458H3.244L11.33 39.59zm.786-2.64h52.75V2.503h-52.75V36.95zm64.764 19.825c0-.01 0-.022-.011-.027L67.557 37.78a1.374 1.374 0 0 0-.212-.3V1.246C67.345.558 66.797 0 66.108 0H10.881c-.684 0-1.242.558-1.242 1.246v36.25a2.063 2.063 0 0 0-.201.284L.125 56.747v.022a1.15 1.15 0 0 0-.125.524v5.455C0 63.437.559 64 1.248 64h74.51c.689 0 1.242-.563 1.242-1.252v-5.455c0-.185-.043-.366-.12-.519z"/>
        <path d="M15.88 44.645h-.76c-.635 0-1.145-.52-1.145-1.145 0-.635.51-1.145 1.145-1.145h.76c.635 0 1.145.51 1.145 1.145 0 .625-.51 1.145-1.145 1.145M21.9 45h-1.66c-.688 0-1.24-.681-1.24-1.5 0-.832.552-1.5 1.24-1.5h1.66c.683 0 1.24.668 1.24 1.5 0 .819-.557 1.5-1.24 1.5m5.808 0h-1.656c-.687 0-1.245-.681-1.245-1.5 0-.832.558-1.5 1.245-1.5h1.656c.682 0 1.24.668 1.24 1.5 0 .819-.558 1.5-1.24 1.5m5.807 0H31.86c-.682 0-1.245-.681-1.245-1.5 0-.832.563-1.5 1.245-1.5h1.656c.688 0 1.245.668 1.245 1.5 0 .819-.557 1.5-1.245 1.5m5.813 0h-1.661c-.682 0-1.234-.681-1.234-1.5 0-.832.552-1.5 1.234-1.5h1.661c.687 0 1.24.668 1.24 1.5 0 .819-.553 1.5-1.24 1.5m5.813 0h-1.662c-.687 0-1.24-.681-1.24-1.5 0-.832.553-1.5 1.24-1.5h1.662c.682 0 1.234.668 1.234 1.5 0 .819-.552 1.5-1.234 1.5m5.807 0h-1.656c-.688 0-1.245-.681-1.245-1.5 0-.832.557-1.5 1.245-1.5h1.656c.682 0 1.24.668 1.24 1.5 0 .819-.558 1.5-1.24 1.5m5.807 0H55.1c-.682 0-1.245-.681-1.245-1.5 0-.832.563-1.5 1.245-1.5h1.656c.688 0 1.245.668 1.245 1.5 0 .819-.557 1.5-1.245 1.5M61.88 44.645h-.76a1.145 1.145 0 1 1 0-2.29h.76c.635 0 1.145.51 1.145 1.145 0 .625-.51 1.145-1.145 1.145M12.883 50.645h-.76a1.15 1.15 0 0 1-1.15-1.145c0-.63.514-1.145 1.15-1.145h.76c.63 0 1.145.515 1.145 1.145s-.516 1.145-1.146 1.145M18.913 51h-1.668C16.56 51 16 50.325 16 49.5s.56-1.5 1.245-1.5h1.668c.69 0 1.245.675 1.245 1.5s-.554 1.5-1.245 1.5m5.833 0h-1.664c-.684 0-1.244-.675-1.244-1.5s.56-1.5 1.244-1.5h1.664c.69 0 1.25.675 1.25 1.5s-.56 1.5-1.25 1.5m5.832 0h-1.663c-.685 0-1.245-.675-1.245-1.5s.56-1.5 1.245-1.5h1.663c.69 0 1.25.675 1.25 1.5s-.56 1.5-1.25 1.5m5.843 0h-1.669c-.69 0-1.244-.675-1.244-1.5s.554-1.5 1.244-1.5h1.669c.685 0 1.24.675 1.24 1.5s-.555 1.5-1.24 1.5m5.832 0h-1.669c-.69 0-1.244-.675-1.244-1.5s.554-1.5 1.244-1.5h1.67c.684 0 1.238.675 1.238 1.5s-.554 1.5-1.239 1.5m5.832 0h-1.663c-.69 0-1.25-.675-1.25-1.5s.56-1.5 1.25-1.5h1.663c.69 0 1.25.675 1.25 1.5s-.56 1.5-1.25 1.5m5.833 0h-1.664c-.684 0-1.244-.675-1.244-1.5s.56-1.5 1.244-1.5h1.664c.69 0 1.25.675 1.25 1.5s-.56 1.5-1.25 1.5m5.843 0h-1.669c-.69 0-1.245-.675-1.245-1.5s.555-1.5 1.245-1.5h1.669c.685 0 1.239.675 1.239 1.5s-.554 1.5-1.24 1.5M64.882 50.645h-.76a1.15 1.15 0 0 1-1.15-1.145c0-.63.515-1.145 1.15-1.145h.76a1.145 1.145 0 1 1 0 2.29M48.497 15.628h11.006v-7.25H48.497v7.25zM60.752 18h-13.51C46.557 18 46 17.461 46 16.809V7.19C46 6.533 46.556 6 47.243 6h13.509C61.439 6 62 6.533 62 7.191v9.618C62 17.46 61.439 18 60.752 18zM48.497 30.623h11.006v-7.246H48.497v7.246zM60.752 33h-13.51C46.557 33 46 32.461 46 31.809V22.19c0-.658.556-1.191 1.243-1.191h13.509c.687 0 1.248.533 1.248 1.191v9.618C62 32.46 61.439 33 60.752 33zM18.507 31.458h22.986V27.81H18.507v3.648zm0-6.19h22.986V7.548H18.507v17.72zM42.747 5h-25.5C16.559 5 16 5.572 16 6.277v26.452c0 .705.558 1.271 1.248 1.271h25.499c.69 0 1.253-.566 1.253-1.271V6.277C44 5.572 43.436 5 42.747 5z"/>
        <path d="M25.512 13.309v6.38l5.72-3.185-5.72-3.195zM24.256 23c-.225 0-.439-.058-.63-.159A1.211 1.211 0 0 1 23 21.79V11.214c0-.434.236-.83.625-1.047.39-.223.867-.223 1.256 0l9.494 5.284c.39.217.625.614.625 1.053 0 .428-.236.83-.625 1.047l-9.494 5.29c-.192.1-.411.159-.625.159zM53.31 15c-.395 0-.78-.203-.99-.57-.32-.541-.13-1.236.415-1.553l.665-.377-.665-.382a1.128 1.128 0 0 1-.415-1.553 1.143 1.143 0 0 1 1.56-.412l2.38 1.365a1.124 1.124 0 0 1 0 1.96l-2.38 1.368a1.17 1.17 0 0 1-.57.154M53.31 30c-.395 0-.78-.203-.99-.57-.32-.546-.13-1.24.415-1.553l.665-.382-.665-.377a1.13 1.13 0 0 1-.415-1.552 1.154 1.154 0 0 1 1.56-.417l2.38 1.369a1.124 1.124 0 0 1 0 1.964l-2.38 1.364a1.118 1.118 0 0 1-.57.154"/>
    </g>
</svg>
