<svg width="67" height="64" viewBox="0 0 67 64" xmlns="http://www.w3.org/2000/svg" xmlns:xlink="http://www.w3.org/1999/xlink">
    <defs>
        <path id="wzry0sx6na" d="M0 .527h66.908V57H0z"/>
        <path id="9getxpfiwc" d="M0 .649h66.91v18.814H0z"/>
    </defs>
    <g fill="none" fill-rule="evenodd">
        <g transform="translate(0 7)">
            <mask id="2n481kzhnb" fill="#fff">
                <use xlink:href="#wzry0sx6na"/>
            </mask>
            <path d="M6.19 3.11A3.6 3.6 0 0 0 2.587 6.7v39.885c0 4.32 3.522 7.833 7.853 7.833h46.03c4.325 0 7.847-3.513 7.847-7.833V6.701a3.601 3.601 0 0 0-3.596-3.592H6.19zm50.28 53.892H10.442c-5.756 0-10.443-4.67-10.443-10.416V6.701C-.002 3.295 2.774.527 6.19.527h54.533c3.41 0 6.186 2.768 6.186 6.174v39.885c0 5.747-4.682 10.416-10.437 10.416z" fill="#60BEB3" mask="url(#2n481kzhnb)"/>
        </g>
        <path d="M12.3 44.621a4.689 4.689 0 0 0-4.684 4.677v2.398a4.691 4.691 0 0 0 4.684 4.689h2.4a4.691 4.691 0 0 0 4.684-4.689v-2.398a4.689 4.689 0 0 0-4.684-4.677h-2.4zM14.7 59h-2.4C8.273 59 5 55.722 5 51.696v-2.398C5 45.278 8.273 42 12.3 42h2.4c4.021 0 7.3 3.278 7.3 7.298v2.398C22 55.722 18.721 59 14.7 59zM32.3 44.621a4.689 4.689 0 0 0-4.684 4.677v2.398a4.691 4.691 0 0 0 4.684 4.689h2.4a4.692 4.692 0 0 0 4.69-4.689v-2.398c0-2.575-2.103-4.677-4.69-4.677h-2.4zM34.7 59h-2.4c-4.021 0-7.3-3.278-7.3-7.304v-2.398C25 45.278 28.279 42 32.3 42h2.4c4.027 0 7.3 3.278 7.3 7.298v2.398C42 55.722 38.727 59 34.7 59z" fill="#60BEB3"/>
        <path d="M33.786 55c-.34 0-.661-.111-.907-.329l-2.447-2.046c-.544-.455-.58-1.224-.076-1.712a1.435 1.435 0 0 1 1.89-.068l1.107.922 2.09-4.07c.31-.605 1.118-.865 1.786-.584.667.281.96 1.007.643 1.606L34.998 54.3c-.181.35-.533.6-.954.673-.088.016-.17.027-.258.027M12.3 25.615a4.69 4.69 0 0 0-4.684 4.683v2.398a4.695 4.695 0 0 0 4.684 4.689h2.4a4.695 4.695 0 0 0 4.684-4.689v-2.398a4.69 4.69 0 0 0-4.684-4.683h-2.4zM14.7 40h-2.4C8.273 40 5 36.722 5 32.696v-2.398C5 26.272 8.273 23 12.3 23h2.4c4.021 0 7.3 3.272 7.3 7.298v2.398C22 36.722 18.721 40 14.7 40z" fill="#60BEB3"/>
        <path d="M13.79 35c-.339 0-.66-.111-.912-.323l-2.447-2.052c-.544-.45-.58-1.219-.07-1.712.497-.493 1.352-.52 1.89-.069l1.1.922 2.096-4.065c.31-.605 1.112-.87 1.78-.589.666.281.965 1.007.643 1.612L15.002 34.3c-.175.355-.538.605-.954.679a1.45 1.45 0 0 1-.257.021M32.3 25.615a4.69 4.69 0 0 0-4.684 4.683v2.398a4.695 4.695 0 0 0 4.684 4.689h2.4a4.696 4.696 0 0 0 4.69-4.689v-2.398a4.691 4.691 0 0 0-4.69-4.683h-2.4zM34.7 40h-2.4c-4.021 0-7.3-3.278-7.3-7.304v-2.398C25 26.272 28.279 23 32.3 23h2.4c4.027 0 7.3 3.272 7.3 7.298v2.398C42 36.722 38.727 40 34.7 40z" fill="#60BEB3"/>
        <path d="M33.786 35c-.34 0-.661-.111-.907-.323l-2.447-2.052c-.544-.45-.58-1.219-.076-1.712.503-.493 1.352-.52 1.89-.069l1.107.922 2.09-4.065c.31-.605 1.118-.87 1.786-.589.667.281.96 1.007.643 1.612L34.998 34.3a1.31 1.31 0 0 1-.954.679c-.088.016-.17.021-.258.021M51.297 44.621c-2.583 0-4.686 2.102-4.686 4.677v2.398a4.692 4.692 0 0 0 4.686 4.689h2.406a4.695 4.695 0 0 0 4.686-4.689v-2.398c0-2.575-2.109-4.677-4.686-4.677h-2.406zM53.703 59h-2.406C47.27 59 44 55.722 44 51.696v-2.398C44 45.278 47.269 42 51.297 42h2.406C57.73 42 61 45.278 61 49.298v2.398C61 55.722 57.731 59 53.703 59zM51.297 25.615a4.69 4.69 0 0 0-4.686 4.683v2.398a4.695 4.695 0 0 0 4.686 4.689h2.406a4.7 4.7 0 0 0 4.686-4.689v-2.398a4.694 4.694 0 0 0-4.686-4.683h-2.406zM53.703 40h-2.406C47.27 40 44 36.722 44 32.696v-2.398A7.302 7.302 0 0 1 51.297 23h2.406A7.302 7.302 0 0 1 61 30.298v2.398C61 36.722 57.731 40 53.703 40z" fill="#60BEB3"/>
        <g>
            <mask id="uuem0q2f7d" fill="#fff">
                <use xlink:href="#9getxpfiwc"/>
            </mask>
            <path d="M64.32 15.525c0 .786-.65 1.413-1.459 1.413H4.048c-.808 0-1.458-.627-1.458-1.413V11.52c0-.781.65-1.414 1.458-1.414h2.177v.561c0 2.607 2.171 4.725 4.851 4.725.718 0 1.295-.567 1.295-1.26 0-.693-.577-1.26-1.295-1.26-1.25 0-2.261-.984-2.261-2.205v-.561H21.14v.561c0 2.607 2.177 4.725 4.857 4.725.713 0 1.295-.567 1.295-1.26 0-.693-.582-1.26-1.295-1.26-1.25 0-2.267-.984-2.267-2.205v-.561h12.325v.561c0 2.607 2.183 4.725 4.857 4.725.713 0 1.295-.567 1.295-1.26 0-.693-.582-1.26-1.295-1.26-1.25 0-2.267-.984-2.267-2.205v-.561h12.337v.561c0 2.607 2.171 4.725 4.851 4.725.713 0 1.295-.567 1.295-1.26 0-.693-.582-1.26-1.295-1.26-1.255 0-2.267-.984-2.267-2.205v-.561h9.295c.809 0 1.459.633 1.459 1.414v4.004zM8.815 5.366c0-1.21 1.012-2.2 2.261-2.2 1.25 0 2.267.99 2.267 2.2v2.222H8.815V5.366zm14.915 0c0-1.21 1.018-2.2 2.267-2.2 1.244 0 2.262.99 2.262 2.2v2.222h-4.53V5.366zm14.915 0c0-1.21 1.018-2.2 2.267-2.2 1.25 0 2.268.99 2.268 2.2v2.222h-4.535V5.366zm14.921 0c0-1.21 1.012-2.2 2.267-2.2 1.25 0 2.262.99 2.262 2.2v2.222h-4.529V5.366zm9.295 2.222h-2.177V5.366c0-2.601-2.176-4.719-4.85-4.719-2.68 0-4.852 2.118-4.852 4.719v2.222H45.77V5.366c0-2.601-2.177-4.719-4.857-4.719-2.674 0-4.856 2.118-4.856 4.719v2.222h-5.208V5.366c0-2.601-2.177-4.719-4.85-4.719-2.68 0-4.858 2.118-4.858 4.719v2.222h-5.207V5.366c0-2.601-2.177-4.719-4.857-4.719s-4.85 2.118-4.85 4.719v2.222H4.047C1.81 7.588 0 9.354 0 11.521v4.004c0 2.178 1.81 3.938 4.048 3.938h58.813c2.234 0 4.049-1.76 4.049-3.938V11.52c0-2.167-1.815-3.933-4.049-3.933z" fill="#60BEB3" mask="url(#uuem0q2f7d)"/>
        </g>
        <path d="m15.353 50.505 1.265-1.266c.51-.516.51-1.347 0-1.857a1.315 1.315 0 0 0-1.854 0l-1.265 1.267-1.259-1.267a1.315 1.315 0 0 0-1.854 0 1.308 1.308 0 0 0 0 1.857l1.265 1.266-1.265 1.26A1.308 1.308 0 0 0 11.313 54c.338 0 .67-.12.927-.378l1.26-1.266 1.264 1.266c.252.258.595.378.933.378.326 0 .67-.12.921-.378.51-.516.51-1.34 0-1.856l-1.265-1.261zM54.35 50.505l1.264-1.266a1.309 1.309 0 0 0 0-1.857 1.32 1.32 0 0 0-1.859 0l-1.258 1.267-1.258-1.267a1.313 1.313 0 0 0-1.853 0 1.309 1.309 0 0 0 0 1.857l1.264 1.266-1.264 1.26a1.309 1.309 0 0 0 0 1.857c.252.258.583.378.926.378.338 0 .67-.12.927-.378l1.258-1.266 1.258 1.266c.258.258.595.378.932.378.332 0 .67-.12.927-.378a1.309 1.309 0 0 0 0-1.856l-1.264-1.261zM54.35 31.502l1.264-1.265a1.307 1.307 0 0 0 0-1.855 1.321 1.321 0 0 0-1.859 0l-1.258 1.265-1.258-1.265a1.314 1.314 0 0 0-1.853 0 1.307 1.307 0 0 0 0 1.855l1.264 1.265-1.264 1.265a1.3 1.3 0 0 0 0 1.85c.252.263.583.383.926.383.338 0 .67-.12.927-.384l1.258-1.265 1.258 1.265c.258.264.595.384.932.384.332 0 .67-.12.927-.384a1.3 1.3 0 0 0 0-1.849l-1.264-1.265z" fill="#60BEB3"/>
    </g>
</svg>
