<svg width="251" height="31" viewBox="0 0 251 31" xmlns="http://www.w3.org/2000/svg">
    <g fill-rule="nonzero" fill="none">
        <g fill="#0C70D6">
            <path d="M162.11 14.8h-3.14v1.88h3.05v1.11h-3.05v2.62h3.14v1.11h-4.32v-7.83h4.32zM170.14 21.52v-8.37l5.71 5.98v-5.44h1.18V22l-5.71-5.96v5.49h-1.18zM196.25 13.69v6.72h2.3v1.11h-3.49v-7.83h1.19zM208.65 11.58l-1.95 1.4-.56-.47 1.55-1.63.96.7zm-1.32 2.11v7.83h-1.18v-7.83h1.18zM215.69 21.52v-8.37l5.71 5.98v-5.44h1.18V22l-5.71-5.96v5.49h-1.18zM234.19 14.8h-3.14v1.88h3.05v1.11h-3.05v2.62h3.14v1.11h-4.32v-7.83h4.32zM247.89 19.62h-3.35l-.87 1.9h-1.27l3.88-8.33 3.74 8.33h-1.29l-.84-1.9zm-.48-1.11-1.16-2.66-1.22 2.66h2.38z"/>
        </g>
        <path d="M17.23 19.98H.01v.33c.02 3.16.98 5.69 2.86 7.51 1.93 1.88 4.6 2.83 7.96 2.83 3.36 0 6.04-.95 7.97-2.84 1.87-1.83 2.84-4.33 2.87-7.45v-.38h-4.44zM0 13.94h21.67v3.72H0zM0 8.66h21.67v3.72H0z" fill="#0C70D6"/>
        <g fill="#1F1713">
            <path d="M35.39 8.66h5.13v9.39h-5.13zM48.22 8.66h5.17v9.39h-5.17zM48.21 20.31l-.01.28c-.04 1.61-.39 2.86-1.05 3.7-.66.85-1.57 1.26-2.79 1.26-1.23 0-2.14-.41-2.79-1.26-.62-.81-.97-1.97-1.04-3.45l-.01-.37v-.16h-5.13v.3c.02 2.96.82 5.33 2.37 7.05 1.6 1.76 3.82 2.65 6.61 2.65 2.79 0 5.01-.9 6.62-2.66 1.56-1.71 2.36-4.06 2.38-6.99v-.35h-5.16z"/>
        </g>
        <g fill="#1F1713">
            <path d="M61.14 18.12c.17-1.37.67-2.51 1.51-3.45 1.04-1.16 2.33-1.73 3.96-1.73.84 0 1.6.14 2.25.42.64.27 1.21.7 1.7 1.26l.66.75 3.39-3.92-.62-.57c-1-.92-2.12-1.61-3.34-2.05-1.21-.44-2.56-.66-4.03-.66-.81 0-1.57.07-2.26.2-.69.13-1.38.33-2.05.59-1.32.54-2.48 1.31-3.46 2.29a10.63 10.63 0 0 0-2.36 3.63c-.39 1.01-.64 2.09-.73 3.23h5.38v.01zM70.66 23.7c-.47.61-1.03 1.05-1.7 1.35-.68.31-1.47.47-2.35.47-1.65 0-2.95-.56-3.98-1.7-.78-.87-1.25-1.91-1.45-3.18l-.02-.14c-.01-.04-.01-.08-.01-.12h-5.4l.04.34c.12 1.01.36 1.99.72 2.9.53 1.36 1.32 2.58 2.33 3.62a9.607 9.607 0 0 0 3.47 2.31c1.31.51 2.76.77 4.29.77 1.49 0 2.86-.24 4.09-.72s2.39-1.21 3.45-2.18l.62-.57-3.47-3.98-.63.83z"/>
        </g>
        <g fill="#1F1713">
            <path d="M80.91 18.12c.18-1.35.7-2.46 1.59-3.37 1.11-1.14 2.49-1.7 4.22-1.7 1.73 0 3.12.56 4.22 1.72.88.92 1.4 2.03 1.58 3.35h5.06V8.66h-4.91v1.89c-.61-.51-1.26-.94-1.97-1.28-1.36-.66-2.86-.99-4.45-.99-3.19 0-5.81 1.01-7.77 3.02-1.74 1.77-2.71 4.06-2.91 6.82h5.34zM92.51 20.37l-.02.1c-.2 1.28-.71 2.33-1.56 3.21-1.11 1.14-2.49 1.7-4.22 1.7-1.74 0-3.12-.56-4.22-1.71-.82-.85-1.32-1.86-1.54-3.07l-.02-.13c-.01-.03-.01-.07-.01-.1h-5.35l.04.35c.12.91.34 1.8.66 2.63.5 1.3 1.25 2.46 2.22 3.47 1.03 1.07 2.24 1.89 3.58 2.44 1.33.55 2.74.82 4.17.82 1.65 0 3.14-.33 4.43-.97.62-.31 1.2-.69 1.74-1.13v1.85h5.17v-9.46h-5.07z"/>
        </g>
        <g fill="#1F1713">
            <path d="M105.56 18.12c.18-1.35.7-2.46 1.62-3.39 1.13-1.15 2.55-1.71 4.32-1.71 1.8 0 3.22.56 4.35 1.7.91.93 1.43 2.05 1.61 3.4h5.07V0h-5.18v10.23c-.55-.43-1.16-.79-1.8-1.07-1.3-.58-2.81-.87-4.48-.87-.76 0-1.51.07-2.22.22-.7.14-1.41.36-2.09.64-1.38.57-2.6 1.39-3.64 2.43-.51.51-.95 1.05-1.31 1.6a9.81 9.81 0 0 0-.93 1.83c-.26.67-.45 1.35-.57 2.04-.06.35-.1.71-.13 1.08h5.38v-.01zM117.43 20.37l-.02.09c-.21 1.24-.73 2.27-1.57 3.14-1.12 1.15-2.55 1.71-4.35 1.71-1.79 0-3.2-.56-4.33-1.71-.81-.83-1.32-1.81-1.55-2.99l-.02-.15c-.01-.03-.01-.06-.01-.09h-5.41l.04.33c.28 2.53 1.28 4.67 2.97 6.35 2.02 2.01 4.68 3.03 7.89 3.03.85 0 1.65-.07 2.38-.21.74-.14 1.45-.36 2.12-.65.67-.29 1.32-.66 1.93-1.1.05-.04.11-.08.16-.12v1.83h4.88v-9.46h-5.11z"/>
        </g>
        <path fill="#0C70D6" d="M139.84.82h1.07V29.1h-1.07z"/>
    </g>
</svg>
