<svg width="246" height="31" viewBox="0 0 246 31" xmlns="http://www.w3.org/2000/svg">
    <g fill="#FFF" fill-rule="nonzero">
        <path d="M160.216 14.878h-3.065v1.86h2.977v1.097h-2.977v2.592h3.065v1.098H156V13.78h4.216zM168.051 21.525v-8.28l5.572 5.916V13.78h1.152V22l-5.572-5.896v5.431h-1.152zM193.53 13.78v6.647h2.244v1.098h-3.405V13.78h1.161zM205.63 11.692l-1.903 1.385-.546-.465L204.693 11l.937.692zm-1.288 2.088v7.745h-1.151V13.78h1.151zM212.5 21.525v-8.28l5.572 5.916V13.78h1.151V22l-5.571-5.896v5.431H212.5zM230.553 14.878h-3.064v1.86h2.976v1.097h-2.976v2.592h3.064v1.098h-4.216V13.78h4.216zM243.922 19.646h-3.27l-.848 1.88h-1.24l3.786-8.24 3.65 8.24h-1.259l-.82-1.88zm-.469-1.098-1.132-2.632-1.19 2.632h2.322zM17.49 20H0v.34c.02 3.258.995 5.866 2.905 7.742C4.865 30.021 7.577 31 10.99 31c3.413 0 6.135-.98 8.095-2.928 1.9-1.886 2.885-4.464 2.915-7.68V20h-4.51zM0 14h22v3H0zM0 9h22v3H0z"/>
        <g>
            <path d="M34 8h5.13v9.542H34zM46.83 8H52v9.542h-5.17zM46.82 19.838l-.01.285c-.04 1.636-.39 2.906-1.05 3.76-.66.863-1.57 1.28-2.79 1.28-1.23 0-2.14-.417-2.79-1.28-.62-.823-.97-2.002-1.04-3.506L39.13 20v-.163H34v.305c.02 3.008.82 5.416 2.37 7.164C37.97 29.096 40.19 30 42.98 30c2.79 0 5.01-.915 6.62-2.703 1.56-1.738 2.36-4.126 2.38-7.103v-.356h-5.16z"/>
        </g>
        <g>
            <path d="M60.104 17.883c.16-1.361.634-2.493 1.43-3.427.984-1.152 2.206-1.718 3.749-1.718.795 0 1.515.139 2.13.417.606.268 1.146.695 1.61 1.251l.625.745 3.21-3.893-.587-.566c-.947-.914-2.007-1.6-3.163-2.036C67.963 8.219 66.684 8 65.292 8c-.766 0-1.486.07-2.14.199a10.64 10.64 0 0 0-1.94.586 9.874 9.874 0 0 0-3.277 2.274 10.624 10.624 0 0 0-2.234 3.606 11.83 11.83 0 0 0-.692 3.208h5.095v.01zM69.118 23.425a4.155 4.155 0 0 1-1.61 1.34c-.644.309-1.392.468-2.225.468-1.562 0-2.793-.557-3.769-1.689-.738-.864-1.183-1.897-1.372-3.158l-.02-.14c-.009-.04-.009-.079-.009-.119H55l.038.338c.113 1.003.34 1.977.682 2.88a10.818 10.818 0 0 0 2.206 3.596 9.08 9.08 0 0 0 3.285 2.294c1.24.507 2.614.765 4.063.765 1.41 0 2.708-.238 3.872-.715 1.165-.477 2.263-1.202 3.267-2.165l.587-.567-3.286-3.953-.596.825z"/>
        </g>
        <g>
            <path d="M78.338 17.93c.18-1.362.7-2.482 1.589-3.4 1.11-1.151 2.489-1.716 4.218-1.716 1.73 0 3.119.565 4.218 1.736.88.928 1.4 2.048 1.58 3.38H95V8.383h-4.908v1.908a9.36 9.36 0 0 0-1.969-1.292C86.763 8.333 85.264 8 83.675 8c-3.188 0-5.807 1.02-7.766 3.048-1.74 1.786-2.71 4.097-2.909 6.882h5.338zM89.932 20.2l-.02.102c-.2 1.292-.71 2.351-1.559 3.24-1.11 1.15-2.489 1.715-4.218 1.715-1.74 0-3.119-.565-4.218-1.726-.82-.858-1.32-1.877-1.54-3.098l-.02-.131c-.01-.03-.01-.07-.01-.101H73l.04.353c.12.918.34 1.817.66 2.654.5 1.312 1.25 2.483 2.219 3.502a10.459 10.459 0 0 0 3.578 2.462 10.78 10.78 0 0 0 4.168.828c1.65 0 3.139-.333 4.428-.979.62-.313 1.2-.696 1.74-1.14v1.867H95V20.2h-5.068z"/>
        </g>
        <g>
            <path d="M104.542 17.47c.185-1.302.72-2.372 1.665-3.269 1.162-1.109 2.622-1.648 4.442-1.648 1.85 0 3.31.54 4.473 1.638.935.897 1.47 1.977 1.655 3.278h5.213V0h-5.326v9.863a8.764 8.764 0 0 0-1.85-1.032c-1.337-.56-2.89-.839-4.607-.839-.781 0-1.553.068-2.283.212-.72.135-1.45.348-2.148.617a11.515 11.515 0 0 0-3.743 2.343 9.896 9.896 0 0 0-1.347 1.543 9.248 9.248 0 0 0-.956 1.764 9.812 9.812 0 0 0-.586 1.967 11.12 11.12 0 0 0-.134 1.041h5.532v-.01zM116.746 19.639l-.02.086a5.445 5.445 0 0 1-1.615 3.028c-1.151 1.108-2.622 1.648-4.472 1.648-1.84 0-3.29-.54-4.452-1.648a5.407 5.407 0 0 1-1.594-2.883l-.02-.145c-.01-.029-.01-.057-.01-.086H99l.041.318c.288 2.439 1.316 4.502 3.054 6.122 2.077 1.938 4.812 2.921 8.112 2.921a13.9 13.9 0 0 0 2.447-.202c.76-.135 1.49-.348 2.18-.627.689-.28 1.357-.636 1.984-1.06.051-.04.113-.078.165-.116v1.764H122v-9.12h-5.254z"/>
        </g>
        <path d="M138 1h1v28h-1z"/>
    </g>
</svg>
