<svg width="50" height="48" viewBox="0 0 50 48" xmlns="http://www.w3.org/2000/svg" xmlns:xlink="http://www.w3.org/1999/xlink">
    <defs>
        <path id="2i1z1s4pqa" d="M0 0h50v48H0z"/>
    </defs>
    <g fill="none" fill-rule="evenodd">
        <mask id="htzy69725b" fill="#fff">
            <use xlink:href="#2i1z1s4pqa"/>
        </mask>
        <path d="m36.518 35.48-.319.226-.039.023-.03.023c-.11.07-.219.149-.327.219l-.04.023-.03.024-.063.039-.007.007-.063.04-.062.038-.07.047h-.008l-.062.039-.039.031-.023.016-.07.039h-.008l-.062.039-.047.031-.015.008-.07.047-.016.007-.054.032-.047.023-.023.015-.054.032-.024.015-.03.016-.055.031-.024.016-.03.015-.055.031-.016.008-.039.024-.054.03-.016.009-.038.023-.055.031h-.008l-.054.031-.054.032-.055.03-.054.024-.063.031-.038.024-.016.007-.054.032-.04.015-.015.008-.054.031-.04.016-.022.015-.055.024-.03.015-.024.016-.062.031-.024.008-.03.016-.055.03-.024.009-.039.023-.054.023-.016.008-.046.016-.055.03h-.007l-.047.024-.062.031-.055.024-.054.023-.008.008-.054.023-.047.024h-.015l-.055.023-.047.024-.015.007-.055.024-.062.023-.054.031-.148.055-.031.015-.062.024-.016.008-.039.015-.124.047-.054.023h-.008l-.055.024c-.318.125-.637.241-.964.35l7.869 7.89v-8.466c0-.312.249-.562.56-.562h8.443l-6.67-6.689a20.762 20.762 0 0 1-2.504 3.072l-.055.055-.03.03-.024.024-.055.055-.062.054-.03.032-.024.023-.055.054-.007.008-.055.047-.031.031-.023.024-.055.054-.062.055-.031.031-.023.023-.055.047-.015.008-.047.047-.039.039-.015.015-.063.055-.015.008-.047.039-.039.039-.023.015-.054.055-.016.008-.047.039-.039.039-.015.015-.062.047-.016.015-.046.04-.047.038-.016.016-.062.047-.015.015-.04.032-.062.054-.062.047-.062.047-.054.046-.008.008-.062.047-.063.047-.054.039-.008.015-.062.047-.023.016-.04.031-.124.094-.03.023-.032.023-.132.094-.023.015-.04.032zM21.333 16.216l-8.304.78 6.26 5.534a.553.553 0 0 1 .17.538l-1.827 8.163 7.177-4.249a.546.546 0 0 1 .575-.008l7.176 4.265-1.811-8.116a.575.575 0 0 1 .163-.593l6.267-5.527-8.265-.78a.551.551 0 0 1-.506-.343l-3.304-7.679-3.304 7.664a.545.545 0 0 1-.467.35zm-9.657-.219a.589.589 0 0 0-.412.195.558.558 0 0 0 .055.788l6.982 6.174-2.037 9.075a.527.527 0 0 0 .062.428.551.551 0 0 0 .762.203l8.008-4.748 8.009 4.756v-.008c.116.07.256.102.404.07a.562.562 0 0 0 .42-.67l-2.03-9.106 6.99-6.159a.577.577 0 0 0 .187-.374.558.558 0 0 0-.505-.608l-9.26-.873-3.694-8.568a.591.591 0 0 0-.288-.296.565.565 0 0 0-.738.296l-3.693 8.56-9.222.865zM18.06 36.65c.202.078.388.156.583.234h.015l.008.008.016.007h.023l.07.032h.016l.015.007.016.008.015.008h.016l.015.008.008.008h.023l.016.007.008.008h.015l.008.008h.008l.015.008.016.008h.016l.015.007.016.008h.015l.008.008h.008l.007.008h.016l.016.008h.007l.008.007h.016l.015.008.008.008h.023l.008.008.016.008h.015l.016.007h.015l.016.008.015.008h.016l.016.008h.015l.008.008.023.007h.008l.062.024c.187.062.381.117.575.171l.047.016c.482.14.964.257 1.454.35 1.166.235 2.372.352 3.6.352 1.687 0 3.32-.227 4.867-.648l.07-.023h.016l.054-.016.047-.015.03-.008.07-.016.009-.007.062-.016.07-.023.07-.024h.015l.055-.015a18.267 18.267 0 0 0 3.763-1.653l.062-.039.07-.031.047-.031.015-.008.25-.156.022-.016.047-.023.047-.031.015-.008.063-.039.023-.016.039-.023.054-.039.008-.008.062-.039.023-.015.04-.024.054-.039h.008l.062-.047.023-.015.039-.023.062-.04.062-.046.024-.016.03-.023.063-.047.062-.039.031-.023.031-.016.063-.047.054-.047.039-.023.023-.015.062-.047h.008l.055-.04.03-.03.024-.016.062-.047h.008l.054-.047.032-.023.023-.016.062-.046.008-.008.085-.07.024-.016.054-.047.016-.007.046-.04.04-.03.015-.016.054-.047.016-.008.046-.039.047-.031.016-.016.07-.062.038-.031.047-.04.016-.007.054-.054.016-.008.038-.04.047-.038.016-.008.054-.047.016-.015.039-.04.046-.038.062-.055.024-.015.03-.04.047-.038.008-.008.055-.047.023-.023.031-.032.055-.046.054-.055.023-.023.031-.032.055-.046.054-.055.024-.023.03-.024.055-.054.055-.055.023-.023.023-.024.055-.054c.52-.522 1.01-1.076 1.461-1.653.459-.577.879-1.185 1.26-1.816l.008-.016c.482-.795.91-1.637 1.275-2.51.45-1.1.8-2.253 1.042-3.454.225-1.161.35-2.37.35-3.602 0-1.24-.125-2.448-.35-3.61a18.88 18.88 0 0 0-1.042-3.453A18.962 18.962 0 0 0 40.42 9.34a18.586 18.586 0 0 0-2.27-2.776l-.031-.03a18.338 18.338 0 0 0-2.792-2.3c-.995-.671-2.06-1.24-3.18-1.708a18.247 18.247 0 0 0-3.452-1.045 18.168 18.168 0 0 0-3.592-.35 18.304 18.304 0 0 0-7.044 1.395 18.334 18.334 0 0 0-3.18 1.707 18.786 18.786 0 0 0-2.8 2.3A18.512 18.512 0 0 0 9.788 9.34a18.962 18.962 0 0 0-1.703 3.188 18.88 18.88 0 0 0-1.042 3.454 18.94 18.94 0 0 0-.35 3.61c0 1.231.125 2.44.35 3.601.241 1.2.591 2.355 1.042 3.454.342.826.739 1.614 1.19 2.37v.015h.008l.015.032.008.015.008.016.023.03.016.032.015.016.008.015.015.031h.008l.008.032.016.023h.007l.016.039.008.008.015.023.016.024.023.03.008.016.008.016.023.031.015.031.008.016.008.015.023.032.024.023.007.023.008.008.016.031.008.008.015.024.016.023v.008l.023.031.008.008.015.023.016.024.023.03.008.016.008.016.023.031v.008l.016.023.015.016.008.015.023.024v.008l.016.023.015.023.008.008.016.031.015.008.008.016.023.031.016.031.062.086.016.023.046.063.024.03.062.087v.007l.062.078.008.016c.357.483.738.951 1.135 1.395l.008.008.14.156.015.016.008.008.023.023.008.008.016.023.023.016.078.085.023.032.016.007.015.016.023.023.024.032.015.015.008.008.023.023.008.008.024.024.015.015.008.008.023.023.008.008.016.016.023.03h.008l.023.024.008.016.015.015.024.024c.855.857 1.788 1.63 2.799 2.3.987.67 2.06 1.24 3.18 1.707zm.552 1.411h-.016l-.015-.008-.016-.007-.015-.008-.024-.008h-.015l-.016-.008-.015-.008h-.016v-.007h-.016l-.015-.008-.016-.008h-.007l-.016-.008h-.016l-.015-.008-.008-.007h-.008l-.015-.008h-.016l-.015-.008-.016-.008-.015-.008-.016-.007h-.008l-.054-.024h-.008c-.186-.07-.373-.14-.552-.218a19.5 19.5 0 0 1-6.337-4.249h-.007l-.024-.031-.015-.016-.008-.008-.031-.023v-.008l-.024-.023-.023-.016v-.007l-.03-.032-.009-.007-.015-.016-.024-.023v-.008l-.03-.024-.016-.015-.008-.008-.023-.031H11l-.023-.031-.016-.016-.008-.008-.023-.03-.008-.009-.023-.015-.024-.032-.023-.023-.054-.054v-.008l-.055-.055-.023-.023-.008-.008c-.49-.53-.948-1.091-1.376-1.684l-.016-.023-.007-.016-.008-.008-.016-.023a6.321 6.321 0 0 1-.202-.28l-.015-.024-.008-.008-.008-.016-.015-.023-.008-.008-.008-.015-.016-.016-.015-.023-.016-.024-.015-.023-.016-.023-.015-.016v-.016l-.016-.007-.008-.024-.015-.015v-.008l-.016-.024-.015-.023-.016-.023-.015-.016-.008-.008-.008-.015-.015-.024-.008-.008-.008-.015-.016-.024-.007-.015v-.008l-.016-.016-.015-.023-.016-.023-.016-.024-6.78 6.798h8.444c.304 0 .56.258.56.562v8.466l7.892-7.913-.202-.07zm23.41-8.685 7.815 7.843a.566.566 0 0 1 0 .795.547.547 0 0 1-.389.164h-9.245v9.262a.558.558 0 0 1-.956.397l-.008-.008-9.252-9.277a19.404 19.404 0 0 1-4.883.624c-1.306 0-2.581-.133-3.81-.374a23.01 23.01 0 0 1-1.267-.297l-9.26 9.286-.008.015a.571.571 0 0 1-.397.164.563.563 0 0 1-.56-.561v-9.27H.567a.552.552 0 0 1-.397-.164.552.552 0 0 1 0-.795l7.93-7.952a21.154 21.154 0 0 1-1.049-2.151 19.724 19.724 0 0 1-1.104-3.665 19.403 19.403 0 0 1-.373-3.82c0-1.31.124-2.588.373-3.827a19.724 19.724 0 0 1 1.104-3.665 19.874 19.874 0 0 1 1.812-3.383 19.368 19.368 0 0 1 2.433-2.978h-.007a20.472 20.472 0 0 1 2.97-2.44 19.29 19.29 0 0 1 3.382-1.809A19.264 19.264 0 0 1 21.294.374 19.732 19.732 0 0 1 25.104 0c1.298 0 2.574.133 3.81.374 1.26.25 2.488.632 3.654 1.115a19.29 19.29 0 0 1 3.382 1.809 19.998 19.998 0 0 1 2.963 2.44l.03.031a19.863 19.863 0 0 1 4.215 6.33 19.724 19.724 0 0 1 1.104 3.665 20.03 20.03 0 0 1 .373 3.827c0 1.302-.132 2.58-.373 3.82a19.724 19.724 0 0 1-1.104 3.665 21.76 21.76 0 0 1-1.135 2.3z" fill="#FF6A00" mask="url(#htzy69725b)"/>
    </g>
</svg>
