<svg width="50" height="32" viewBox="0 0 50 32" xmlns="http://www.w3.org/2000/svg">
    <path d="M6.383 25.532h36.17V3.192H6.383v22.34zM5.762 2.128a.44.44 0 0 0-.443.442v23.583a.44.44 0 0 0 .443.443h37.412a.44.44 0 0 0 .443-.443V2.57a.44.44 0 0 0-.443-.442H5.762zm11.714 28.119a.46.46 0 0 1 0-.92h15.048c.252 0 .455.205.455.46 0 .256-.203.46-.455.46H17.476zm27.59-29.183H4.928a.708.708 0 0 0-.479.194.668.668 0 0 0-.193.467V27.66h41.49V1.725a.673.673 0 0 0-.2-.467.708.708 0 0 0-.478-.194zM5.057 0h39.888a1.559 1.559 0 0 1 1.564 1.556v26.299h1.934c.414 0 .792.166 1.076.43.006.007.012.019.025.031.284.277.457.665.457 1.095v.954c0 .424-.173.812-.457 1.095a1.544 1.544 0 0 1-1.1.455H1.557c-.427 0-.816-.172-1.1-.455A1.54 1.54 0 0 1 0 30.365v-.954c0-.43.173-.818.457-1.095a1.56 1.56 0 0 1 1.1-.461h1.935V1.556c0-.43.18-.818.458-1.095l.006-.006H3.95A1.559 1.559 0 0 1 5.056 0zm-3.33 30.971h46.547c.185 0 .35-.076.467-.204a.7.7 0 0 0 .196-.485v-.99a.704.704 0 0 0-.196-.49l-.012-.014a.665.665 0 0 0-.455-.185H1.727a.656.656 0 0 0-.467.198.704.704 0 0 0-.196.492v.989a.7.7 0 0 0 .196.485.637.637 0 0 0 .467.204z" fill="#FF6A00" fill-rule="evenodd"/>
</svg>
