<svg width="50" height="47" viewBox="0 0 50 47" xmlns="http://www.w3.org/2000/svg" xmlns:xlink="http://www.w3.org/1999/xlink">
    <defs>
        <path id="s8c38y6k0a" d="M0 0h50v46.429H0z"/>
    </defs>
    <g fill="none" fill-rule="evenodd">
        <mask id="ixj78ju5nb" fill="#fff">
            <use xlink:href="#s8c38y6k0a"/>
        </mask>
        <path d="M30.718 14.085a8.054 8.054 0 0 0-5.726-2.363 8.036 8.036 0 0 0-5.717 2.363 8.051 8.051 0 0 0-2.36 5.163H33.07a8.043 8.043 0 0 0-2.351-5.163zm-5.726-3.475a4.75 4.75 0 0 0 3.366-1.389 4.732 4.732 0 0 0 1.391-3.36c0-1.312-.53-2.5-1.39-3.36a4.75 4.75 0 0 0-3.367-1.389 4.75 4.75 0 0 0-3.366 1.389 4.732 4.732 0 0 0-1.39 3.36c0 1.312.53 2.501 1.39 3.36a4.75 4.75 0 0 0 3.366 1.389zM46.52 40.16a8.041 8.041 0 0 1 2.351 5.156H32.724a8.003 8.003 0 0 1 2.351-5.155 8.089 8.089 0 0 1 5.718-2.37h.008c2.229 0 4.257.905 5.718 2.37zm-2.36-11.583a4.74 4.74 0 0 1 1.399 3.36 4.74 4.74 0 0 1-1.399 3.36 4.745 4.745 0 0 1-3.358 1.389h-.008a4.75 4.75 0 0 1-3.366-1.389 4.732 4.732 0 0 1-1.391-3.36c0-1.312.53-2.501 1.391-3.36a4.75 4.75 0 0 1 3.366-1.389 4.75 4.75 0 0 1 3.366 1.389zm-3.366-2.501a5.86 5.86 0 0 0-4.15 1.718 5.84 5.84 0 0 0-1.721 4.143 5.84 5.84 0 0 0 1.721 4.143c.407.406.876.751 1.391 1.028a9.234 9.234 0 0 0-3.743 2.27 9.146 9.146 0 0 0-2.697 6.498c0 .3.246.553.553.553h17.3a.555.555 0 0 0 .553-.553c0-2.54-1.03-4.833-2.698-6.498a9.178 9.178 0 0 0-3.75-2.27 5.938 5.938 0 0 0 1.391-1.028v-.008a5.835 5.835 0 0 0 0-8.278 5.86 5.86 0 0 0-4.15-1.718zM14.917 40.16a8.05 8.05 0 0 1 2.36 5.155H1.121a8.041 8.041 0 0 1 2.352-5.155 8.102 8.102 0 0 1 5.718-2.37h.007c2.237 0 4.258.905 5.718 2.37zm-2.36-11.584a4.74 4.74 0 0 1 1.4 3.36 4.74 4.74 0 0 1-1.4 3.36A4.731 4.731 0 0 1 9.2 36.686h-.007a4.75 4.75 0 0 1-3.367-1.389 4.732 4.732 0 0 1-1.39-3.36c0-1.312.53-2.501 1.39-3.36a4.75 4.75 0 0 1 3.367-1.389 4.75 4.75 0 0 1 3.366 1.389zm-3.365-2.501c-1.614 0-3.09.66-4.15 1.718a5.833 5.833 0 0 0-1.714 4.143c0 1.619.653 3.084 1.714 4.143.415.406.883.751 1.398 1.028a9.21 9.21 0 0 0-3.75 2.27A9.14 9.14 0 0 0 0 45.876c0 .3.246.553.553.553h17.292a.555.555 0 0 0 .553-.553c0-2.54-1.03-4.833-2.697-6.498a9.101 9.101 0 0 0-3.743-2.27 6.058 6.058 0 0 0 1.384-1.028v-.008a5.835 5.835 0 0 0 0-8.278 5.86 5.86 0 0 0-4.15-1.718zm13.087 6.774.008.007.039.039c.03.038.061.069.092.1h.007a3.596 3.596 0 0 0 2.567 1.066 3.614 3.614 0 0 0 2.575-1.066 3.614 3.614 0 0 0 1.068-2.57c0-1.005-.407-1.91-1.068-2.57A3.627 3.627 0 0 0 25 26.789h-.008c-.999 0-1.913.415-2.567 1.067a3.614 3.614 0 0 0-1.068 2.57c0 .928.346 1.78.922 2.424zm2.168-10.856a.55.55 0 0 1 .553-.552.55.55 0 0 1 .553.552v3.721c1.084.13 2.06.63 2.798 1.358a4.728 4.728 0 0 1 1.39 3.353c0 .997-.307 1.917-.83 2.677l2.998 3.015a.555.555 0 0 1 0 .782.557.557 0 0 1-.784 0l-2.943-2.96a4.74 4.74 0 0 1-6.28.076L19.022 36.9a.557.557 0 0 1-.784 0 .541.541 0 0 1 0-.782l2.913-2.915a4.703 4.703 0 0 1-.9-2.777c0-1.312.53-2.494 1.392-3.353a4.758 4.758 0 0 1 2.805-1.358v-3.72zm3.304-10.962a9.178 9.178 0 0 1 3.75 2.27A9.146 9.146 0 0 1 34.2 19.8a.56.56 0 0 1-.553.553h-17.3a.555.555 0 0 1-.553-.553c0-2.539 1.03-4.833 2.698-6.497a9.234 9.234 0 0 1 3.742-2.271 5.938 5.938 0 0 1-1.39-1.028A5.84 5.84 0 0 1 19.12 5.86a5.84 5.84 0 0 1 1.721-4.143A5.86 5.86 0 0 1 24.992 0c1.622 0 3.09.66 4.15 1.718a5.84 5.84 0 0 1 1.722 4.143c0 1.619-.661 3.076-1.722 4.143a5.938 5.938 0 0 1-1.39 1.028z" fill="#FF6A00" mask="url(#ixj78ju5nb)"/>
    </g>
</svg>
