<svg width="50" height="50" viewBox="0 0 50 50" xmlns="http://www.w3.org/2000/svg" xmlns:xlink="http://www.w3.org/1999/xlink">
    <defs>
        <path id="n76cuowkqa" d="M0 0h50v50H0z"/>
    </defs>
    <g fill="none" fill-rule="evenodd">
        <mask id="52i7vromkb" fill="#fff">
            <use xlink:href="#n76cuowkqa"/>
        </mask>
        <path d="M46.678 36.025H3.314a2.2 2.2 0 0 0-1.557.643v.007a2.17 2.17 0 0 0-.652 1.562v2.081c0 .605.245 1.164.652 1.562.399.398.951.65 1.557.65h43.364a2.208 2.208 0 0 0 2.21-2.212v-2.081c0-.613-.246-1.164-.645-1.562a2.207 2.207 0 0 0-1.565-.65zm-5.294 7.607H8.608v3.054a2.215 2.215 0 0 0 2.218 2.204h28.34c.615 0 1.167-.245 1.566-.643h.008c.399-.398.644-.956.644-1.56v-3.055zM10.81 28.341a.569.569 0 0 1 .223.061c.276.153.583.23.897.23.3-.008.606-.085.883-.245l2.44-1.432c.43-.252.713-.65.828-1.102.115-.436.07-.91-.161-1.324-.015-.023-.03-.053-.046-.076a1.773 1.773 0 0 0-1.082-.789 1.793 1.793 0 0 0-1.327.161l-.016.008-.023.015-2.44 1.424c-.276.16-.49.39-.644.65a1.875 1.875 0 0 0-.245.88c0 .077-.016.161-.054.238l.767 1.3zm-1.12.543.123-.069-.668-1.14-5.547 3.253.66 1.132 2.171-1.27a.414.414 0 0 1 .1-.054l3.161-1.852zm-2.386 6.039h.775v-3.82l-.775.452v3.368zm17.945-19.716c.077.031.161.07.23.138l.008.008c.284.298 1.22.337 2.033.329-.299-.214-.644-.39-.99-.505-.421-.146-.813-.2-1.02-.123l-.023.008a.492.492 0 0 1-.238.145zm-2.585.475c.805.008 1.741-.038 2.033-.33a.645.645 0 0 1 .238-.145.578.578 0 0 1-.23-.13l-.008-.015-.023-.008c-.215-.076-.599-.023-1.028.123-.338.115-.69.29-.982.505zm-.706 1.08c.882.03 2.286.068 3.13-.36.844.428 2.248.39 3.138.367.138-.008.253-.008.437-.008a.554.554 0 0 0 .5-.796 2.423 2.423 0 0 0-.592-.826c-.452-.444-1.081-.804-1.687-1.003-.653-.222-1.312-.283-1.765-.107l-.03.007-.024-.007c-.46-.176-1.12-.123-1.772.107-.606.199-1.235.559-1.688 1.003a2.46 2.46 0 0 0-.606.872.555.555 0 0 0 .522.75h.437zm10.058-9.598c-.03-2.495-.43-4.485-2.838-5.442v.29c0 .452.13.889.383 1.287.276.428.698.826 1.266 1.209l.023.015.038.03h.008v.008l.015.008.054.038c.437.337.668.704.79 1.102.115.368.13.72.139 1.087.007.084.046.207.122.368zM29.285 21.69c-.115-.62-.184-1.592-.238-2.403a8.777 8.777 0 0 1-1.074.75c-.951.543-1.964.865-2.985.865-1.02 0-2.04-.322-2.984-.873a8.507 8.507 0 0 1-1.097-.758c-.046.827-.1 1.799-.207 2.411.115.077.222.153.33.23.56.39 1.09.689 1.588.91.92.406 1.757.56 2.562.513.675-.038 1.35-.222 2.049-.52.53-.23 1.082-.528 1.65-.873.137-.084.268-.168.406-.252zm1.228 1.278-.599-.367c-.115.069-.222.137-.338.206-1.51.926-2.877 1.539-4.334 1.623-1.489.092-3.03-.375-4.834-1.607-.107-.077-.222-.153-.345-.238l-.63.406c.453.628 1.129 1.125 1.904 1.5 1.143.551 2.493.819 3.644.819 1.212 0 2.424-.321 3.46-.819.867-.42 1.596-.957 2.072-1.523zm-20.34 6.911-.99.582v4.462h.99v-5.044zm6.637-6.008.023.038a.31.31 0 0 1 .038.07c.384.68.46 1.453.276 2.15a2.883 2.883 0 0 1-1.335 1.775l-2.44 1.424a2.83 2.83 0 0 1-1.426.398 2.476 2.476 0 0 1-.668-.069v5.266h27.413v-6.138h-.008c0-1.248-.682-2.312-1.84-3.184-1.29-.972-3.154-1.7-5.287-2.174-.583.78-1.52 1.516-2.632 2.059-1.174.566-2.555.926-3.943.926-1.312 0-2.831-.306-4.128-.934-.997-.482-1.88-1.155-2.447-2.028-.3.07-.599.138-.898.222-.238.061-.476.13-.698.2zm1.143-16.654c.077-.176.123-.321.123-.42.015-.368.023-.72.138-1.088.123-.398.353-.765.79-1.102l.054-.038.015-.008v-.007h.008l.038-.03.023-.016c.576-.383.99-.78 1.266-1.21a2.32 2.32 0 0 0 .391-1.285l-.007-.291c-2.425.964-2.808 2.977-2.839 5.495zm1.834.743h10.472c.031 0 .054.007.085.007.268.008.544.046.775.146l.207.114c-.269-.497-.522-1.017-.53-1.392-.015-.291-.023-.574-.092-.796a1.061 1.061 0 0 0-.399-.551v.007l-.038-.038-.046-.03h-.008c-.698-.468-1.22-.98-1.58-1.531a3.4 3.4 0 0 1-.56-1.883v-.62c-.844-.191-1.857-.29-3.085-.29-1.235 0-2.247.099-3.091.29v.62a3.4 3.4 0 0 1-.56 1.883c-.353.55-.883 1.063-1.581 1.53h-.008l-.038.03-.046.04v-.008a1.003 1.003 0 0 0-.391.55c-.07.223-.085.506-.092.797-.016.336-.208.826-.422 1.3.038-.022.084-.038.13-.06.26-.1.552-.115.844-.115h.054zm-.43 1.125v.03l-.008 1.799h.008c0 .069.008.138.038.206a.702.702 0 0 0 .1.161l.008.008a.428.428 0 0 0 .314.138l3.215.007v-.007c.13 0 .253-.023.36-.07.116-.053.223-.13.315-.221.085-.092.154-.2.207-.322l.008-.023c.054-.122.077-.268.077-.413h.007V9.07H19.71l-.046-.007c-.115.007-.23.007-.307.023zm12.629.528h-.269v1.3h.008c0 .223-.046.422-.123.613-.07.176-.169.337-.292.475-.023.03-.046.06-.069.084-.145.138-.299.245-.483.321-.192.084-.391.13-.606.13h-3.215c-.276 0-.552-.06-.798-.168a2.199 2.199 0 0 1-.675-.475 2.35 2.35 0 0 1-.445-.696l-.03-.092-.039.092-.015.038a2.22 2.22 0 0 1-.43.658c-.192.2-.422.36-.675.475a2.015 2.015 0 0 1-.798.168v-.007h-3.215a1.49 1.49 0 0 1-1.112-.482h-.008a1.8 1.8 0 0 1-.33-.529 1.576 1.576 0 0 1-.122-.604h.007V9.613h-.268c0 .29.007.566.007.796v.206l.008.2v.13c0 1.04.207 2.096.575 3.1a10.789 10.789 0 0 0 1.635 2.938c.191.245.391.475.598.696l.008.008h.007l.016.015a7.764 7.764 0 0 0 1.718 1.378c.783.452 1.612.712 2.432.712.821 0 1.642-.26 2.425-.712.86-.497 1.665-1.224 2.348-2.097a10.81 10.81 0 0 0 1.641-2.939 9.088 9.088 0 0 0 .576-3.107c-.008-.03-.008-.061-.008-.1l.008-.222v-.206c0-.23.008-.505.008-.796zm-1.366-.498V9.1a1.622 1.622 0 0 0-.36-.03H25.97v1.308c0 .153.03.29.076.413.054.13.123.245.215.345.092.092.2.168.315.222a.95.95 0 0 0 .36.076h3.215c.061 0 .115-.015.169-.03a.52.52 0 0 0 .138-.1l.015-.015a.516.516 0 0 0 .1-.169.452.452 0 0 0 .038-.206h.008V9.115zM3.314 34.923H6.2v-2.717l-1.857 1.079a.546.546 0 0 1-.751-.2l-1.228-2.073a.557.557 0 0 1 .2-.758l6.245-3.658a.554.554 0 0 1 .207-.215l.015-.007c.054-.352.177-.697.353-1.003a2.89 2.89 0 0 1 1.044-1.04l2.416-1.417.07-.045a2.972 2.972 0 0 1 2.155-.276c.315.084.614.214.883.398l.007-.008a23.153 23.153 0 0 1 2.509-.674l1.136-.742c.107-.535.168-1.73.214-2.625.016-.252.031-.49.039-.666a11.756 11.756 0 0 1-2.317-3.857c-.415-1.125-.652-2.311-.652-3.482v-.054c0-.03.007-.061.007-.084V10.631l-.007-.222c0-.513-.008-.919-.016-1.286v-.268C16.78 3.842 16.711 0 24.988 0c8.279 0 8.202 3.842 8.118 8.855l-.008.168v.099c-.008.368-.008.774-.008 1.287l-.007.237-.008.153c.008.03.008.061.008.084v.054c0 1.17-.238 2.357-.645 3.482a11.979 11.979 0 0 1-1.81 3.245c-.17.222-.361.436-.545.643l.046.666c.061.895.146 2.082.253 2.617l1.128.697c2.409.505 4.519 1.324 6 2.434 1.427 1.079 2.286 2.433 2.286 4.064h-.008v6.138h6.89a3.31 3.31 0 0 1 2.348.972c.598.597.974 1.423.974 2.342v2.081c0 .911-.376 1.738-.974 2.342h-.008a3.31 3.31 0 0 1-2.34.972h-4.19v3.054c0 .91-.367 1.737-.973 2.342a3.342 3.342 0 0 1-2.348.972H10.826c-.921 0-1.75-.375-2.348-.972a3.312 3.312 0 0 1-.975-2.342v-3.054H3.314a3.31 3.31 0 0 1-2.34-.972A3.293 3.293 0 0 1 0 40.318v-2.081c0-.919.368-1.745.974-2.342l.008-.008a3.299 3.299 0 0 1 2.332-.964z" fill="#FF6A00" mask="url(#52i7vromkb)"/>
    </g>
</svg>
